# xmcd
#
# Track frame offsets: 
#        150
#        25038
#        50714
#        64706
#        75507
#        94764
#        109854
#        131628
#        159240
#        178141
#
# Disc length: 2699 seconds
#
# Revision: 0
# Processed by: cddbd v1.5.2PL0 Copyright (c) Steve Scherf et al.
# Submitted via: ExactAudioCopyFreeDBPlugin 1.0
#
DISCID=7b0a890a
DTITLE=Sir Oliver Mally - Shapeshifter
DYEAR=2015
DGENRE=Blues
TTITLE0=01 Sir Oliver Mally - Strong Believer
TTITLE1=02 Sir Oliver Mally - Marie
TTITLE2=03 Sir Oliver Mally - Sleep Well_My Love
TTITLE3=04 Sir Oliver Mally - One Of A Kind
TTITLE4=05 Sir Oliver Mally - Lovestruck Serenade
TTITLE5=06 Sir Oliver Mally - You Can't Beat The Devil
TTITLE6=07 Sir Oliver Mally - Last Summer (Pissed Me Off)
TTITLE7=08 Sir Oliver Mally - Meet Me
TTITLE8=09 Sir Oliver Mally - Oblivion Blues
TTITLE9=10 Sir Oliver Mally - I Ain't Got No Home
EXTD=
EXTT0=
EXTT1=
EXTT2=
EXTT3=
EXTT4=
EXTT5=
EXTT6=
EXTT7=
EXTT8=
EXTT9=
PLAYORDER=
